<?xml version="1.0" encoding="UTF-8" standalone="no"?>
<!-- Generator: Adobe Illustrator 16.0.0, SVG Export Plug-In . SVG Version: 6.00 Build 0)  -->

<svg
   xmlns:dc="http://purl.org/dc/elements/1.1/"
   xmlns:cc="http://creativecommons.org/ns#"
   xmlns:rdf="http://www.w3.org/1999/02/22-rdf-syntax-ns#"
   xmlns:svg="http://www.w3.org/2000/svg"
   xmlns="http://www.w3.org/2000/svg"
   xmlns:sodipodi="http://sodipodi.sourceforge.net/DTD/sodipodi-0.dtd"
   xmlns:inkscape="http://www.inkscape.org/namespaces/inkscape"
   version="1.1"
   id="Capa_1"
   x="0px"
   y="0px"
   width="97.391px"
   height="97.391px"
   viewBox="0 0 97.391 97.391"
   style="enable-background:new 0 0 97.391 97.391;"
   xml:space="preserve"
   inkscape:version="0.48.5 r10040"
   sodipodi:docname="mylibe:hover.svg"><metadata
     id="metadata41"><rdf:RDF><cc:Work
         rdf:about=""><dc:format>image/svg+xml</dc:format><dc:type
           rdf:resource="http://purl.org/dc/dcmitype/StillImage" /><dc:title></dc:title></cc:Work></rdf:RDF></metadata><defs
     id="defs39" /><sodipodi:namedview
     pagecolor="#ffffff"
     bordercolor="#666666"
     borderopacity="1"
     objecttolerance="10"
     gridtolerance="10"
     guidetolerance="10"
     inkscape:pageopacity="0"
     inkscape:pageshadow="2"
     inkscape:window-width="1366"
     inkscape:window-height="705"
     id="namedview37"
     showgrid="false"
     inkscape:zoom="2.4232219"
     inkscape:cx="48.695499"
     inkscape:cy="48.695499"
     inkscape:window-x="0"
     inkscape:window-y="27"
     inkscape:window-maximized="1"
     inkscape:current-layer="Capa_1" /><g
     id="g3"><path
       d="M0,7.573h17.5v8.75H0V7.573z M0,19.823h17.5v59.501H0V19.823z M3.208,68.312c0,3.021,2.447,5.47,5.469,5.47   c3.021,0,5.469-2.447,5.469-5.47s-2.448-5.47-5.469-5.47C5.655,62.843,3.208,65.293,3.208,68.312z M0,89.824h17.5v-7H0V89.824z    M21,81.6v1.225v7h22.75v-8.268c-0.929-0.664-3.815-2.232-10.5-2.232C26.913,79.324,22.866,80.744,21,81.6z M21,31.257   c1.866,0.854,5.913,2.276,12.25,2.276c6.643-0.001,9.536-1.55,10.5-2.245v-6.215H21V31.257z M21,35.046V77.81   c2.534-0.948,6.592-1.985,12.25-1.985c5.105,0,8.417,0.854,10.5,1.767V35.268c-2.083,0.91-5.395,1.765-10.5,1.765   C27.592,37.031,23.534,35.994,21,35.046z M80.859,7.18l-12,2.462l1.76,8.571l12-2.462L80.859,7.18z M95.279,77.469l-11.998,2.463   L71.32,21.643l12-2.462L95.279,77.469z M91.116,67.08c-0.607-2.957-2.972-4.971-5.275-4.498c-2.307,0.475-3.688,3.258-3.077,6.215   c0.606,2.957,2.969,4.973,5.274,4.498C90.346,72.822,91.725,70.041,91.116,67.08z M95.984,80.893l-12.002,2.464l1.408,6.854   l12-2.463L95.984,80.893z M49,16.323h17.5v-8.75H49V16.323z M49,89.824h17.5v-7H49V89.824z M49,70.574h17.5V28.573H49V70.574z    M49,79.324h17.5v-5.25H49V79.324z M49,25.073h17.5v-5.25H49V25.073z"
       id="path5" /></g><g
     id="g7" /><g
     id="g9" /><g
     id="g11" /><g
     id="g13" /><g
     id="g15" /><g
     id="g17" /><g
     id="g19" /><g
     id="g21" /><g
     id="g23" /><g
     id="g25" /><g
     id="g27" /><g
     id="g29" /><g
     id="g31" /><g
     id="g33" /><g
     id="g35" /><path
     style="fill:#ff6600"
     d="m 49.190708,49.644649 0,-20.840023 8.459811,0 8.459812,0 0,20.840023 0,20.840023 -8.459812,0 -8.459811,0 0,-20.840023 z"
     id="path3022"
     inkscape:connector-curvature="0" /><path
     style="fill:#ff6600"
     d="m 21.128895,56.453765 c 0,-19.961305 0.04009,-21.118898 0.722179,-20.850715 4.333921,1.704018 14.873564,1.927392 20.427349,0.432931 l 1.134853,-0.305376 0,20.706233 c 0,19.528537 -0.04107,20.693775 -0.722179,20.487224 -5.423703,-1.64481 -16.227795,-1.448687 -20.840023,0.378298 -0.682113,0.270198 -0.722179,-0.886481 -0.722179,-20.848595 z"
     id="path3024"
     inkscape:connector-curvature="0" /><path
     style="fill:#ff6600"
     d="m 0.08253474,49.644649 0,-29.506171 8.66614816,0 8.6661481,0 0,29.506171 0,29.506171 -8.6661481,0 -8.66614816,0 0,-29.506171 z M 11.620961,73.111117 c 4.727489,-2.792596 2.559252,-10.47195 -2.9549531,-10.465702 -2.7058364,0.0029 -5.6897798,2.889504 -5.6932145,5.507184 -0.0023,1.753542 1.2116158,3.979504 2.6478083,4.855292 1.5752354,0.960577 4.4648253,1.010287 6.0003593,0.103226 l 0,0 z"
     id="path3026"
     inkscape:connector-curvature="0" /><path
     style="fill:#ff6600"
     d="m 0.08253474,11.885003 0,-4.126737 8.66614816,0 8.6661481,0 0,4.126737 0,4.126737 -8.6661481,0 -8.66614816,0 0,-4.126737 z"
     id="path3028"
     inkscape:connector-curvature="0" /><path
     style="fill:#ff6600"
     d="m 27.07494,32.766653 c -1.609542,-0.307936 -3.605851,-0.805562 -4.436242,-1.105836 l -1.509803,-0.545952 0,-3.012151 0,-3.012152 11.159549,0 11.15955,0 -0.120528,3.198222 -0.120527,3.198221 -2.269706,0.754461 C 37.931555,33.240569 30.937114,33.50556 27.07494,32.766653 l 0,0 z"
     id="path3030"
     inkscape:connector-curvature="0" /><path
     style="fill:#ff6600"
     d="m 0.08253474,86.166274 0,-3.30139 8.66614816,0 8.6661481,0 0,3.30139 0,3.301389 -8.6661481,0 -8.66614816,0 0,-3.301389 z"
     id="path3032"
     inkscape:connector-curvature="0" /><path
     style="fill:#ff6600"
     d="m 21.128895,85.56325 0,-3.904413 2.146118,-0.637329 c 5.796793,-1.721462 13.236537,-1.878617 17.66222,-0.37309 l 2.269706,0.772108 0.118112,4.023569 0.118112,4.023568 -11.157134,0 -11.157134,0 0,-3.904413 z"
     id="path3034"
     inkscape:connector-curvature="0" /><path
     style="fill:#ff6600"
     d="m 49.190708,86.166274 0,-3.30139 8.459811,0 8.459812,0 0,3.30139 0,3.301389 -8.459812,0 -8.459811,0 0,-3.301389 z"
     id="path3036"
     inkscape:connector-curvature="0" /><path
     style="fill:#ff6600"
     d="m 49.190708,11.885003 0,-4.126737 8.459811,0 8.459812,0 0,4.126737 0,4.126737 -8.459812,0 -8.459811,0 0,-4.126737 z"
     id="path3038"
     inkscape:connector-curvature="0" /><path
     style="fill:#ff6600"
     d="m 83.427197,79.460326 c -0.0085,-0.05674 -2.675175,-13.00954 -5.925973,-28.783993 -3.250798,-15.774453 -5.8799,-28.721999 -5.842448,-28.772325 0.03745,-0.05033 2.629208,-0.622352 5.759457,-1.27117 3.782823,-0.784079 5.737729,-1.030166 5.829631,-0.733846 0.32375,1.043876 11.749679,57.322801 11.651469,57.38984 -0.165174,0.112747 -10.793897,2.287187 -11.147201,2.28051 -0.170228,-0.0032 -0.316449,-0.05227 -0.324935,-0.109016 z m 6.615228,-7.115449 c 2.160784,-2.300049 1.353491,-7.651342 -1.408348,-9.335509 -1.464912,-0.893302 -2.271736,-0.962627 -3.688832,-0.316954 -3.250251,1.480913 -3.005333,8.539136 0.354414,10.213737 1.587416,0.791215 3.70792,0.540268 4.742766,-0.561274 l 0,0 z"
     id="path3040"
     inkscape:connector-curvature="0" /><path
     style="fill:#ff6600"
     d="M 69.932792,13.896247 69.125814,9.8497291 72.054315,9.2151202 c 7.557022,-1.6376139 8.557197,-1.7879445 8.712717,-1.3095591 0.466458,1.4348398 1.47173,7.3842339 1.280098,7.5758649 -0.124254,0.124255 -2.719242,0.728888 -5.766638,1.343628 l -5.540721,1.11771 -0.806979,-4.046517 z"
     id="path3042"
     inkscape:connector-curvature="0" /><path
     style="fill:#ff6600"
     d="m 85.09545,87.543005 c -0.266099,-1.324629 -0.570722,-2.784213 -0.676939,-3.24352 -0.177765,-0.7687 0.25767,-0.923938 5.475984,-1.952262 3.118007,-0.614437 5.748361,-1.037901 5.845231,-0.941031 0.184333,0.184333 1.2815,5.062864 1.306637,5.809937 0.008,0.236965 -2.167515,0.8524 -4.834419,1.367635 -2.666904,0.515234 -5.250263,1.033735 -5.740796,1.152224 -0.800385,0.193333 -0.941513,-0.03164 -1.375698,-2.192983 z"
     id="path3044"
     inkscape:connector-curvature="0" /><path
     style="fill:#ff6600"
     d="m 49.190708,22.408183 0,-2.269705 8.459811,0 8.459812,0 0,2.269705 0,2.269706 -8.459812,0 -8.459811,0 0,-2.269706 z"
     id="path3065"
     inkscape:connector-curvature="0" /><path
     style="fill:#ff6600"
     d="m 49.190708,76.674778 0,-2.476042 8.459811,0 8.459812,0 0,2.476042 0,2.476042 -8.459812,0 -8.459811,0 0,-2.476042 z"
     id="path3067"
     inkscape:connector-curvature="0" /></svg>